<?xml version="1.0" standalone="no"?><!DOCTYPE svg PUBLIC "-//W3C//DTD SVG 1.1//EN" "http://www.w3.org/Graphics/SVG/1.1/DTD/svg11.dtd"><svg t="1778756936310" class="icon" viewBox="0 0 1024 1024" version="1.1" xmlns="http://www.w3.org/2000/svg" p-id="5317" xmlns:xlink="http://www.w3.org/1999/xlink" width="128" height="128"><path d="M0 512v512h1024V0H0v512z m873.405451-368.919078c1.180713 1.180713 1.180713 510.175262 0 511.355975-0.536688 0.42935-17.818029 0.8587-38.319497 0.8587-29.303145 0-37.782809-0.322013-38.856185-1.395387-1.180713-1.180713-1.502725-41.968973-1.932075-216.285116l-0.536688-214.78239-2.683438-0.751362c-1.502725-0.42935-147.159748-0.751363-323.837316-0.8587l-321.153879-0.107338-1.610063-2.361426c-1.502725-2.039413-1.7174-7.620964-1.7174-38.748847v-36.280083l2.468763-0.966038c3.005451-1.180713 726.889727-0.8587 728.177778 0.322012z m-539.049057 142.75891c1.824738 1.395388 1.932075 9.016352 1.932076 220.793292v219.183228l-2.576101 1.502726c-2.039413 1.073375-10.41174 1.395388-37.675472 1.502725H260.830189l-1.502726-2.468763c-1.395388-2.039413-1.610063-31.879245-1.824738-218.646541-0.107338-118.929979 0.214675-217.251153 0.644026-218.431866 1.932075-4.937526 1.180713-4.830189 38.534171-4.830189 28.229769 0 36.065409 0.322013 37.675472 1.395388z m87.372746 0.644025c0.536688 0.751363 0.8587 100.038574 0.644026 220.471279l-0.214675 218.968554-2.576101 1.395388c-3.864151 2.146751-70.520755 2.146751-73.526206 0-2.039413-1.502725-2.039413-5.044864-2.039413-220.471279 0-186.230608 0.214675-219.075891 1.502726-220.685954 1.395388-1.610063 4.830189-1.7174 38.426834-1.502726 29.94717 0.214675 37.031447 0.644025 37.782809 1.824738z m84.152621-0.751362c1.7174 1.28805 1.824738 15.349266 2.039413 220.793291l0.214675 219.290566-2.683438 1.502726c-3.864151 2.146751-70.520755 2.146751-73.526206 0-2.039413-1.502725-2.039413-5.044864-2.039413-220.471279 0-183.869182 0.214675-219.183229 1.502726-220.578617 1.28805-1.610063 5.259539-1.824738 37.031446-1.824738 26.834382 0 36.065409 0.322013 37.460797 1.288051z m86.621384 0.8587c2.146751 2.146751 2.146751 3.542138 2.14675 221.007966v218.861216l-3.327463 1.180713c-2.254088 0.751363-15.671279 1.180713-38.104822 1.180713-30.161845 0-34.884696-0.214675-36.280084-1.7174-1.610063-1.502725-1.7174-22.218868-1.502725-220.793292 0.214675-120.540042 0.751363-219.827254 1.180713-220.578616 0.644025-0.966038 9.338365-1.28805 37.353459-1.288051 34.992034 0 36.494759 0.107338 38.534172 2.146751z m92.095597 0.751363c1.502725 2.898113 4.293501 16.207966 5.152201 23.936268 0.322013 3.864151 1.073375 8.050314 1.610063 9.338365 0.42935 1.180713 1.395388 6.332914 2.039413 11.27044 0.644025 4.830189 1.824738 11.27044 2.683438 14.275891 0.8587 2.898113 1.824738 8.479665 2.146751 12.343816 0.42935 3.864151 1.395388 9.338365 2.14675 12.343815 0.751363 2.898113 1.7174 8.479665 2.146751 12.343816 0.322013 3.864151 1.28805 8.909015 2.039413 11.27044 0.8587 2.361426 1.824738 8.157652 2.254088 12.880503 0.42935 4.722851 1.180713 9.338365 1.610063 10.304402 0.536688 0.8587 1.502725 6.010901 2.14675 11.270441 0.644025 5.259539 1.824738 11.914465 2.683439 14.919916 0.751363 2.898113 1.7174 8.479665 2.14675 12.343815 0.322013 3.864151 1.28805 9.338365 2.146751 12.343816 0.751363 2.898113 1.7174 9.016352 2.14675 13.417191 0.42935 4.400839 1.180713 8.587002 1.717401 9.231027 0.536688 0.644025 1.502725 5.474214 2.14675 10.733753 0.644025 5.259539 1.824738 11.914465 2.576101 14.919916 0.751363 2.898113 1.824738 8.69434 2.14675 12.773165 0.42935 4.078826 1.395388 9.12369 2.146751 11.270441s1.7174 8.050314 2.14675 12.98784c0.42935 5.044864 1.180713 9.660377 1.717401 10.304403 0.536688 0.644025 1.395388 5.688889 2.039413 11.163102 0.644025 5.581551 1.824738 12.12914 2.5761 14.490566 0.8587 2.361426 1.824738 7.620964 2.254088 11.807128 0.42935 4.078826 1.395388 9.875052 2.146751 12.880504 0.751363 2.898113 1.7174 9.016352 2.14675 13.41719 0.42935 4.400839 1.180713 8.587002 1.717401 9.231028 0.644025 0.751363 1.502725 5.796226 2.14675 11.27044 0.644025 5.581551 1.502725 11.163103 2.039413 12.55849 0.536688 1.28805 1.610063 6.869602 2.254088 12.343816 0.644025 5.366876 1.824738 12.236478 2.576101 15.241929 0.751363 2.898113 1.7174 8.479665 2.146751 12.343815 0.322013 3.864151 1.180713 8.801677 1.824738 11.055765 0.966038 3.327463 0.8587 4.722851-0.536688 7.620965-1.502725 3.327463-2.146751 3.649476-7.942977 4.400838-3.434801 0.42935-6.654927 1.180713-7.298952 1.610063-0.536688 0.42935-6.332914 1.395388-12.773165 2.039413-6.440252 0.644025-12.236478 1.610063-12.880504 2.146751-0.644025 0.42935-5.688889 1.502725-11.27044 2.14675-5.581551 0.751363-10.948428 1.7174-12.021803 2.254088-1.073375 0.644025-3.756813 1.073375-6.010901 1.073376-3.971488 0-4.293501-0.322013-6.654927-5.044864-1.610063-3.434801-2.790776-8.479665-3.434801-15.027254-0.536688-5.581551-1.395388-10.948428-2.039413-12.021803-0.536688-1.073375-1.502725-6.440252-2.14675-11.914465-0.644025-5.474214-1.610063-10.733753-2.146751-11.914466-0.644025-1.073375-1.610063-6.869602-2.254088-12.98784-0.536688-6.010901-1.502725-11.485115-2.039413-12.129141-0.536688-0.644025-1.502725-5.581551-2.14675-11.055765-0.536688-5.366876-1.610063-11.163103-2.254088-12.773166-0.644025-1.610063-1.610063-7.513627-2.146751-12.98784s-1.395388-10.948428-2.039413-12.129141c-0.644025-1.180713-1.610063-6.225577-2.14675-11.163102-0.536688-4.937526-1.7174-11.163103-2.576101-13.846541-0.966038-2.790776-1.7174-7.084277-1.7174-9.55304 0-2.576101-0.8587-8.26499-2.039413-12.665828-1.073375-4.400839-2.254088-11.163103-2.683439-15.134591-0.322013-4.078826-1.073375-8.26499-1.7174-9.338365-0.536688-1.180713-1.610063-7.084277-2.254088-13.202516-0.644025-6.118239-1.610063-11.592453-2.146751-12.236478-0.536688-0.644025-1.395388-5.474214-2.039413-10.948428-0.536688-5.366876-1.610063-11.163103-2.254088-12.773165-0.644025-1.610063-1.610063-7.298952-2.14675-12.451153-0.536688-5.259539-1.395388-10.304403-2.039413-11.485116-0.536688-1.073375-1.502725-6.332914-2.146751-11.807127-0.644025-5.474214-1.610063-10.733753-2.14675-11.807128s-1.610063-6.654927-2.254088-12.343816c-0.536688-5.796226-1.610063-11.69979-2.146751-13.309853-0.644025-1.502725-1.610063-7.084277-2.14675-12.343816s-1.502725-10.089727-2.039413-10.84109c-0.536688-0.751363-1.610063-6.225577-2.146751-12.343815-0.644025-6.118239-1.7174-12.021803-2.254088-13.202516-0.644025-1.073375-1.610063-6.547589-2.14675-12.12914-0.536688-5.581551-1.502725-11.163103-2.146751-12.343816-0.644025-1.28805-1.610063-7.084277-2.14675-12.987841s-1.502725-11.69979-2.146751-12.880503c-0.644025-1.180713-1.180713-4.400839-1.28805-7.084277 0-5.796226 1.610063-7.298952 8.801677-8.372327 2.683438-0.42935 5.688889-1.073375 6.547589-1.610062 0.966038-0.42935 6.762264-1.395388 12.880503-2.039413 6.118239-0.644025 12.021803-1.7174 12.987841-2.254089 0.966038-0.536688 6.547589-1.502725 12.343815-2.14675 5.796226-0.644025 11.27044-1.610063 12.236478-2.146751 3.005451-1.7174 10.519078-1.180713 11.592453 0.858701zM219.397904 361.727463l2.790775 1.073376v215.21174c0 174.638155 0.214675 215.426415 1.395388 215.855765 0.751363 0.214675 146.837736 0.644025 324.588679 0.751362 264.050314 0.214675 323.515304 0.42935 324.696017 1.610063 1.932075 1.932075 1.824738 74.814256-0.107337 76.746332-1.932075 1.932075-722.918239 2.361426-726.78239 0.42935l-2.683439-1.395388-0.322012-254.2826c-0.214675-238.181971-0.107338-254.497275 1.610063-255.785325 2.254088-1.610063 70.520755-1.932075 74.814256-0.214675z" fill="#FF0000" p-id="5318"></path></svg>